<!-- sample rectangle -->
<svg width="400" height="400" xmlns="http://www.w3.org/2000/svg">
<path d="M185.483 25.919 C 148.704 29.006,112.284 44.330,86.040 67.758 C 54.199 96.184,35.992 128.126,27.954 169.664 C 24.897 185.463,24.827 213.678,27.807 229.262 C 33.572 259.408,44.495 284.133,61.847 306.309 C 109.097 366.694,186.868 389.566,258.559 364.161 C 357.270 329.182,402.914 214.379,355.421 120.537 C 323.694 57.848,255.752 20.019,185.483 25.919 M236.282 57.188 C 237.536 57.536,239.097 59.249,239.381 60.588 C 239.703 62.110,239.605 128.384,239.197 184.966 C 239.034 207.495,239.390 205.666,235.009 206.495 C 232.278 207.011,172.155 207.006,168.878 206.488 C 163.018 205.563,161.382 203.813,160.789 197.836 C 160.074 190.640,159.878 132.549,160.535 122.819 C 161.020 115.646,160.703 116.043,175.853 103.631 C 193.206 89.414,210.365 75.004,213.422 72.079 C 215.120 70.454,217.839 68.040,219.463 66.714 C 221.087 65.388,223.656 63.244,225.172 61.951 C 230.222 57.641,233.246 56.345,236.282 57.188 M182.531 167.063 C 177.109 168.592,173.692 174.262,174.860 179.790 C 177.359 191.615,194.265 191.192,196.310 179.254 C 197.621 171.600,190.085 164.933,182.531 167.063 M267.916 219.404 C 267.914 222.242,267.839 224.836,267.750 225.168 L 267.588 225.772 259.700 225.772 L 251.812 225.772 251.812 219.933 L 251.812 214.094 259.866 214.169 L 267.919 214.244 267.916 219.404 M103.803 219.595 C 111.347 220.182,114.676 221.729,117.243 225.843 C 122.018 233.497,122.143 245.494,117.566 256.957 C 116.206 260.364,116.008 261.064,116.299 261.432 C 116.489 261.672,117.343 262.710,118.196 263.738 C 121.903 268.201,122.993 272.754,123.022 283.893 C 123.055 297.042,119.046 305.314,111.513 307.641 C 109.853 308.154,103.134 309.129,102.897 308.892 C 102.746 308.742,103.318 289.905,103.517 288.472 C 103.807 286.374,104.109 285.942,105.587 285.503 C 111.826 283.650,111.578 277.091,105.238 276.292 C 102.913 275.999,102.953 276.191,102.953 265.235 C 102.953 254.178,103.028 253.689,104.977 252.046 C 107.704 249.746,107.832 245.851,105.253 243.680 C 102.748 241.573,102.095 242.824,101.872 250.160 C 101.798 252.619,101.680 256.322,101.609 258.389 C 101.539 260.456,101.481 272.628,101.479 285.436 L 101.477 308.725 93.557 308.725 L 85.638 308.725 85.638 264.027 L 85.638 219.329 93.087 219.335 C 97.185 219.338,102.006 219.455,103.803 219.595 M153.970 219.736 C 159.199 221.068,162.918 224.681,164.971 230.425 C 167.715 238.104,168.212 245.756,168.459 284.228 L 168.617 308.725 160.571 308.725 L 152.526 308.725 152.406 280.604 C 152.265 247.672,152.195 246.743,149.769 245.488 C 147.525 244.327,146.516 247.237,145.995 256.376 C 145.582 263.620,145.810 264.698,147.753 264.698 C 149.908 264.698,150.040 265.363,150.055 276.272 C 150.071 287.333,149.966 287.916,147.900 288.268 C 145.935 288.604,145.929 288.635,145.817 299.396 L 145.720 308.725 137.692 308.725 L 129.664 308.725 129.663 307.047 C 129.647 282.356,130.731 246.731,131.711 239.732 C 133.680 225.677,143.314 217.022,153.970 219.736 M193.386 246.913 C 193.617 283.578,193.315 281.231,198.019 282.951 C 199.578 283.522,199.584 283.569,199.679 296.711 L 199.766 308.725 197.534 308.720 C 187.505 308.699,180.825 301.787,179.056 289.599 C 178.184 283.592,177.987 275.833,177.987 247.315 L 177.987 219.866 179.933 219.833 C 181.003 219.815,183.570 219.715,185.638 219.611 C 187.705 219.507,190.255 219.401,191.304 219.375 L 193.212 219.329 193.386 246.913 M229.082 219.727 C 236.320 221.260,240.751 228.120,242.266 240.134 C 243.211 247.631,243.469 266.240,243.043 296.198 L 242.865 308.725 235.527 308.725 L 228.188 308.725 228.167 302.349 C 228.156 298.842,228.100 295.732,228.043 295.436 C 227.985 295.141,227.914 289.644,227.884 283.221 C 227.727 249.626,227.122 243.810,223.957 245.503 C 221.919 246.593,221.627 247.746,221.516 255.116 C 221.385 263.832,221.558 264.693,223.442 264.702 C 225.386 264.711,225.517 265.304,225.636 274.631 C 225.788 286.435,225.570 287.908,223.626 288.219 C 221.517 288.556,221.491 288.697,221.483 299.799 L 221.477 308.725 213.383 308.725 L 205.289 308.725 205.466 289.463 C 205.926 239.382,206.048 237.795,210.041 229.853 C 214.177 221.629,220.981 218.010,229.082 219.727 M300.403 220.046 C 305.414 221.420,309.259 225.197,311.185 230.639 C 313.283 236.569,313.831 242.173,314.013 259.597 C 314.350 291.841,312.209 301.914,304.058 306.426 C 292.292 312.939,280.233 304.128,277.740 287.198 C 276.648 279.781,276.439 251.454,277.414 243.085 C 279.167 228.044,284.315 221.152,295.034 219.500 C 296.111 219.334,298.804 219.608,300.403 220.046 M267.651 267.785 L 267.651 308.725 259.732 308.725 L 251.812 308.725 251.812 267.785 L 251.812 226.846 259.732 226.846 L 267.651 226.846 267.651 267.785 M294.445 240.738 C 292.783 242.520,292.628 244.223,292.623 260.671 C 292.617 285.389,293.322 290.118,296.597 287.315 C 298.627 285.577,298.987 246.461,297.021 241.141 C 296.498 239.725,295.532 239.573,294.445 240.738 ">
</svg>